<?xml version="1.0" standalone="no"?>
<!DOCTYPE svg PUBLIC "-//W3C//DTD SVG 20010904//EN"
 "http://www.w3.org/TR/2001/REC-SVG-20010904/DTD/svg10.dtd">
<svg version="1.0" xmlns="http://www.w3.org/2000/svg"
 width="700.000000pt" height="700.000000pt" viewBox="0 0 700.000000 700.000000"
 preserveAspectRatio="xMidYMid meet">
<metadata>
Created by potrace 1.14, written by Peter Selinger 2001-2017
</metadata>
<g transform="translate(0.000000,700.000000) scale(0.100000,-0.100000)"
fill="#000000" stroke="none">
<path d="M3368 6995 c-2 -1 -30 -6 -63 -10 -33 -3 -99 -15 -146 -25 -570 -126
-1034 -542 -1207 -1080 -64 -199 -75 -285 -77 -603 -1 -153 -6 -282 -11 -286
-5 -5 -67 -29 -139 -53 -71 -25 -172 -63 -223 -84 l-93 -39 4 -985 c2 -542 7
-1005 10 -1030 4 -25 9 -65 12 -90 16 -118 41 -268 61 -365 9 -38 17 -77 19
-86 10 -50 69 -257 95 -337 65 -200 217 -543 281 -634 11 -14 19 -29 19 -33 0
-13 145 -223 224 -325 95 -123 296 -327 416 -423 88 -70 258 -186 367 -251 77
-46 284 -144 378 -180 39 -15 79 -31 90 -35 101 -41 125 -41 238 -2 398 139
736 350 1028 641 80 80 176 183 213 230 260 328 466 748 585 1192 29 108 84
368 96 453 41 285 43 335 44 1310 l1 950 -38 17 c-80 35 -142 60 -257 101
l-120 44 -2 214 c-2 321 -10 429 -44 564 -76 305 -217 554 -436 768 -150 147
-355 282 -543 357 -58 24 -236 77 -280 85 -14 2 -56 9 -95 16 -61 10 -398 22
-407 14z m348 -729 c341 -73 604 -320 695 -652 17 -63 22 -117 26 -268 l5
-188 -29 5 c-15 3 -44 8 -63 11 -19 3 -48 8 -65 10 -52 8 -188 25 -250 31 -33
4 -75 8 -93 10 -206 25 -703 20 -955 -9 -29 -3 -75 -8 -103 -11 -28 -3 -61 -8
-74 -10 -13 -2 -46 -7 -74 -10 -28 -3 -68 -10 -88 -14 -44 -10 -40 -23 -41
129 0 171 11 266 44 364 61 183 159 318 314 436 125 95 271 155 425 176 25 3
46 7 48 9 9 8 218 -6 278 -19z m266 -1391 c70 -35 119 -84 154 -153 24 -48 29
-69 29 -137 0 -126 -24 -166 -220 -360 -97 -96 -179 -169 -206 -182 -227 -114
-486 50 -475 301 4 85 53 192 93 202 37 10 76 -7 91 -38 11 -24 10 -34 -13
-81 -43 -91 -32 -169 32 -229 52 -49 134 -63 197 -33 17 8 100 84 185 169 136
137 155 159 166 202 22 86 -7 157 -81 200 -58 34 -115 35 -184 2 -44 -21 -59
-24 -82 -16 -51 18 -65 79 -25 115 81 74 233 91 339 38z m-497 -139 c182 -55
277 -275 192 -448 -33 -67 -46 -79 -88 -80 -23 -1 -39 6 -55 25 -25 29 -23 49
11 115 71 138 -61 293 -214 252 -35 -9 -69 -37 -191 -158 -168 -167 -190 -197
-190 -262 1 -146 140 -229 270 -161 63 32 101 27 124 -18 23 -44 0 -83 -71
-117 -50 -25 -70 -29 -143 -29 -65 0 -96 5 -131 21 -148 68 -223 226 -183 382
8 31 23 70 33 85 32 51 334 348 376 370 81 42 169 50 260 23z m75 -1248 c0 -7
25 -37 54 -66 38 -37 57 -65 66 -97 12 -41 9 -119 -4 -132 -3 -3 -43 22 -90
56 -94 68 -129 78 -124 34 2 -19 17 -38 48 -61 83 -61 89 -69 86 -115 -2 -26
-20 -75 -49 -132 -70 -135 -80 -249 -34 -385 l23 -68 -51 -1 c-27 0 -66 -3
-85 -6 -32 -5 -39 -1 -85 46 -62 64 -139 101 -283 135 -364 85 -387 95 -453
210 -39 69 -50 77 -77 59 -23 -17 -22 -48 4 -99 8 -16 14 -30 14 -32 0 -6 -54
7 -86 21 -19 8 -34 12 -34 9 0 -13 -69 33 -98 65 -51 57 -75 131 -76 231 0
138 13 176 62 189 45 11 129 30 160 36 13 2 31 6 40 9 9 3 31 8 47 10 100 18
215 37 245 41 161 22 293 35 390 41 63 4 116 7 117 8 1 1 63 3 138 5 106 2
135 -1 135 -11z m325 -3 c39 -3 88 -7 110 -10 96 -11 231 -28 248 -31 21 -4
71 -45 107 -88 l24 -29 -24 7 c-52 14 -156 18 -197 7 -75 -21 -77 -71 -3 -65
168 14 227 -11 282 -119 27 -54 31 -72 32 -142 0 -69 -4 -88 -28 -134 -65
-125 -237 -252 -460 -341 -104 -41 -178 -43 -241 -5 -81 47 -118 131 -117 267
0 74 3 83 66 215 91 191 99 243 58 348 -15 38 -65 112 -87 127 -9 7 69 5 230
-7z m630 -89 c44 -9 89 -18 100 -20 139 -28 512 -138 666 -197 l76 -29 -3 -93
c-3 -102 -11 -206 -19 -282 -12 -104 -35 -266 -44 -307 -6 -24 -12 -59 -16
-78 -3 -19 -12 -64 -21 -99 -9 -36 -17 -72 -19 -80 -2 -9 -19 -71 -39 -138
-106 -367 -271 -699 -489 -985 -85 -111 -124 -150 -144 -144 -37 10 -171 26
-268 31 -219 11 -329 32 -431 79 -161 76 -220 179 -192 339 6 35 7 62 1 68
-15 15 -92 -31 -160 -94 -66 -62 -149 -179 -201 -282 -39 -79 -106 -265 -123
-338 -7 -32 -16 -60 -21 -63 -4 -3 -6 1 -4 8 3 7 7 42 10 78 4 36 8 72 9 80
55 267 139 433 299 592 130 129 282 218 437 258 53 14 166 17 239 6 72 -10
106 4 126 55 9 22 16 45 16 53 0 7 10 24 21 37 32 35 77 138 82 184 2 22 -2
52 -10 67 -14 29 -60 58 -91 58 -11 0 -39 8 -63 19 -24 10 -76 30 -115 45 -65
24 -72 30 -100 79 -16 28 -44 61 -62 72 -17 11 -31 22 -32 25 0 3 30 16 68 29
198 70 415 224 510 363 20 29 52 58 87 78 55 32 95 72 95 96 0 21 -37 36 -59
24 -11 -5 -30 -14 -43 -19 -21 -8 -24 -6 -24 18 -1 56 -16 139 -35 200 -17 52
-88 179 -116 209 -18 18 -16 24 5 18 9 -2 53 -12 97 -20z m-2375 -112 c-5 -20
-8 -87 -7 -149 l2 -113 -28 16 c-48 28 -117 103 -143 153 -13 27 -24 52 -24
56 0 5 28 17 63 26 50 15 136 42 143 46 1 1 -2 -15 -6 -35z m-262 -126 c62
-126 268 -300 447 -380 76 -34 248 -93 359 -123 28 -7 92 -26 141 -40 50 -15
97 -28 106 -30 134 -26 257 -78 284 -119 24 -36 27 -93 9 -158 -19 -66 -29
-78 -39 -47 -19 60 -177 165 -282 188 -63 13 -309 7 -328 -9 -15 -12 -15 -14
0 -22 8 -5 36 -52 60 -103 31 -65 62 -111 98 -148 85 -87 230 -145 338 -135
51 5 60 -3 35 -31 -24 -28 -145 -278 -193 -399 -73 -187 -129 -400 -148 -567
-10 -87 -13 -282 -5 -342 3 -29 5 -53 3 -53 -23 0 -238 194 -332 300 -118 133
-136 156 -231 298 -169 249 -320 578 -400 867 -25 90 -68 262 -74 295 -3 19
-8 46 -11 60 -9 43 -37 213 -41 250 -2 19 -6 53 -9 75 -6 54 -16 193 -19 287
l-3 77 66 25 c36 14 77 30 91 35 42 16 46 13 78 -51z"/>
</g>
</svg>
